<?xml version="1.0" encoding="UTF-8" standalone="no"?>
<!DOCTYPE svg PUBLIC "-//W3C//DTD SVG 1.1//EN" "http://www.w3.org/Graphics/SVG/1.1/DTD/svg11.dtd">
<svg width="100%" height="100%" viewBox="0 0 512 512" version="1.1" xmlns="http://www.w3.org/2000/svg" xmlns:xlink="http://www.w3.org/1999/xlink" xml:space="preserve" xmlns:serif="http://www.serif.com/" style="fill-rule:evenodd;clip-rule:evenodd;stroke-linejoin:round;stroke-miterlimit:2;">
    <g transform="matrix(1.41723,0,0,1.41723,-199.026,-133.823)">
        <path d="M492.282,189.453C492.282,142.205 453.923,103.846 406.675,103.846L235.461,103.846C188.213,103.846 149.854,142.205 149.854,189.453L149.854,360.668C149.854,407.915 188.213,446.275 235.461,446.275L406.675,446.275C453.923,446.275 492.282,407.915 492.282,360.668L492.282,189.453Z"/>
        <path d="M492.282,189.453C492.282,142.205 453.923,103.846 406.675,103.846L235.461,103.846C188.213,103.846 149.854,142.205 149.854,189.453L149.854,360.668C149.854,407.915 188.213,446.275 235.461,446.275L406.675,446.275C453.923,446.275 492.282,407.915 492.282,360.668L492.282,189.453ZM465.647,189.453L465.647,360.668C465.647,393.215 439.223,419.639 406.675,419.639C406.675,419.639 235.461,419.639 235.461,419.639C202.914,419.639 176.489,393.215 176.489,360.668L176.489,189.453C176.489,156.906 202.914,130.482 235.461,130.482L406.675,130.482C439.222,130.482 465.647,156.906 465.647,189.453Z" style="fill:white;"/>
    </g>
    <g transform="matrix(1.12409,0,0,1.12409,-43.2473,70.7898)">
        <text x="99.442px" y="243.841px" style="font-family:'CourierPrime-Bold', 'Courier Prime', monospace;font-weight:700;font-size:266.667px;fill:white;">TW</text>
    </g>
</svg>
